<?xml version="1.0"?>
<svg xmlns="http://www.w3.org/2000/svg" height="512px" viewBox="0 -31 511.99747 511" width="512px" class=""><g><path d="m437.132812 316.78125c-1.75.015625-3.515624-.558594-4.933593-1.796875-3.121094-2.726563-3.4375-7.464844-.710938-10.585937 90.648438-103.675782 76.609375-201.75 22.484375-252.953126-24.523437-23.199218-56.269531-35.945312-89.46875-35.945312-.269531 0-.535156 0-.804687.003906-36.816407.226563-72.25 15.957032-102.46875 45.492188-2.914063 2.847656-7.570313 2.847656-10.484375 0-30.125-29.441406-65.445313-45.171875-102.148438-45.492188-33.398437-.285156-65.386718 12.320313-90.132812 35.507813-3.023438 2.832031-7.769532 2.679687-10.601563-.34375-2.832031-3.023438-2.675781-7.769531.34375-10.601563 27.570313-25.835937 63.257813-39.84375 100.523438-39.5625 38.511719.335938 75.460937 15.800782 107.257812 44.8125 31.90625-29.109375 68.972657-44.574218 107.617188-44.8125 37.367187-.269531 73.132812 13.988282 100.671875 40.042969 31.566406 29.859375 48.503906 71.410156 47.691406 117-.921875 51.816406-24.84375 106.007813-69.1875 156.726563-1.402344 1.605468-3.511719 2.496093-5.648438 2.507812zm0 0" data-original="#000000" class="active-path" data-old_color="#ffffff" fill="#ffffff"/><path d="m255.988281 448.914062c-4.113281 0-8.230469-1.003906-11.980469-3.011718-70.75-37.90625-127.414062-79.789063-168.421874-124.492188-36.535157-39.832031-60.167969-81.203125-70.234376-122.960937-11.808593-48.984375-3.933593-96.714844 22.175782-134.398438 2.359375-3.40625 7.03125-4.253906 10.4375-1.894531 3.402344 2.359375 4.25 7.03125 1.894531 10.4375-23.640625 34.121094-30.714844 77.566406-19.925781 122.339844 9.464844 39.257812 31.90625 78.398437 66.707031 116.335937 39.863281 43.457031 95.191406 84.304688 164.449219 121.410157 3.066406 1.640624 6.730468 1.640624 9.796875 0 61.359375-32.875 111.957031-68.816407 150.390625-106.832032 2.945312-2.910156 7.695312-2.886718 10.605468.0625 2.914063 2.945313 2.886719 7.691406-.058593 10.605469-39.457031 39.027344-91.222657 75.832031-153.851563 109.386719-3.753906 2.007812-7.867187 3.011718-11.984375 3.011718zm0 0" data-original="#000000" class="active-path" data-old_color="#ffffff" fill="#ffffff"/><path d="m318.382812 340.734375c-.003906 0-.003906 0-.007812 0-9.816406-.003906-19.773438-2.292969-30.3125-4.71875-10.539062-2.429687-21.4375-4.9375-32.074219-4.9375-10.632812 0-21.527343 2.507813-32.066406 4.933594-10.542969 2.429687-20.5 4.722656-30.320313 4.722656-18.335937 0-31.980468-8.652344-41.710937-26.449219-15.140625-27.679687-9.472656-56.203125.882813-73.664062 9.179687-15.492188 22.570312-24.738282 35.8125-24.738282 12.210937 0 18.078124-6.183593 25.511718-14.011718 8.691406-9.160156 19.511719-20.558594 41.890625-20.558594 22.382813 0 33.203125 11.398438 41.894531 20.558594 7.433594 7.828125 13.300782 14.011718 25.507813 14.011718 13.246094 0 26.636719 9.246094 35.816406 24.738282 10.355469 17.460937 16.023438 45.984375.882813 73.664062-9.730469 17.796875-23.375 26.449219-41.707032 26.449219zm-62.394531-24.65625c12.339844 0 24.082031 2.703125 35.4375 5.316406 9.6875 2.230469 18.839844 4.335938 26.953125 4.335938h.003906c9.074219 0 19.5625-2.214844 28.546876-18.640625 12.117187-22.15625 7.621093-44.910156-.625-58.820313-6.261719-10.558593-15.257813-17.382812-22.914063-17.382812-18.648437 0-28.074219-9.929688-36.386719-18.6875-8.089844-8.523438-15.074218-15.882813-31.015625-15.882813-15.9375 0-22.921875 7.359375-31.011719 15.882813-8.316406 8.757812-17.738281 18.6875-36.390624 18.6875-7.65625 0-16.648438 6.824219-22.910157 17.382812-8.246093 13.910157-12.742187 36.667969-.628906 58.820313 8.984375 16.425781 19.476563 18.640625 28.554687 18.640625 8.113282 0 17.265626-2.105469 26.953126-4.335938 11.355468-2.613281 23.09375-5.316406 35.433593-5.316406zm0 0" data-original="#000000" class="active-path" data-old_color="#ffffff" fill="#ffffff"/><path d="m218.289062 182.171875c-16.503906 0-29.929687-16.960937-29.929687-37.808594 0-20.847656 13.425781-37.808593 29.929687-37.808593 16.503907 0 29.929688 16.960937 29.929688 37.808593 0 20.847657-13.425781 37.808594-29.929688 37.808594zm0-60.617187c-8.09375 0-14.929687 10.445312-14.929687 22.808593s6.835937 22.804688 14.929687 22.804688c8.089844 0 14.929688-10.441407 14.929688-22.804688s-6.839844-22.808593-14.929688-22.808593zm0 0" data-original="#000000" class="active-path" data-old_color="#ffffff" fill="#ffffff"/><path d="m159.714844 215.113281c-10.964844 0-21.835938-6.363281-29.078125-17.019531-11.4375-16.820312-10.148438-38.347656 2.929687-49.003906 15.035156-12.25 35.652344-3.1875 45.460938 11.246094 11.4375 16.824218 10.148437 38.347656-2.933594 49.007812-4.628906 3.773438-10.296875 5.769531-16.378906 5.769531zm-9.765625-56.792969c-2.628907 0-4.953125.808594-6.90625 2.398438-6.863281 5.59375-6.863281 18.847656-.003907 28.945312 4.71875 6.9375 15.507813 14.628907 23.578126 8.050782 6.863281-5.59375 6.867187-18.851563.003906-28.945313-4.378906-6.445312-10.769532-10.449219-16.671875-10.449219zm0 0" data-original="#000000" class="active-path" data-old_color="#ffffff" fill="#ffffff"/><path d="m293.691406 182.171875c-16.503906 0-29.929687-16.960937-29.929687-37.808594 0-20.847656 13.425781-37.808593 29.929687-37.808593s29.929688 16.960937 29.929688 37.808593c0 20.847657-13.425782 37.808594-29.929688 37.808594zm0-60.617187c-8.09375 0-14.929687 10.445312-14.929687 22.808593s6.835937 22.804688 14.929687 22.804688c8.089844 0 14.929688-10.441407 14.929688-22.804688s-6.839844-22.808593-14.929688-22.808593zm0 0" data-original="#000000" class="active-path" data-old_color="#ffffff" fill="#ffffff"/><path d="m352.265625 215.113281c-6.085937 0-11.75-1.996093-16.382813-5.773437-13.078124-10.65625-14.367187-32.183594-2.929687-49.003906 9.761719-14.363282 30.351563-23.558594 45.460937-11.25 13.078126 10.660156 14.363282 32.1875 2.929688 49.007812-7.242188 10.65625-18.113281 17.019531-29.078125 17.019531zm9.765625-56.878906c-6.460938.003906-13.164062 5.371094-16.671875 10.535156-6.863281 10.09375-6.863281 23.351563 0 28.945313 8.070313 6.578125 18.875-1.132813 23.578125-8.050782 6.863281-10.097656 6.863281-23.351562 0-28.945312-2.152344-1.753906-4.511719-2.488281-6.90625-2.484375zm0 0" data-original="#000000" class="active-path" data-old_color="#ffffff" fill="#ffffff"/></g> </svg>
