<svg id="Layer_1" data-name="Layer 1" xmlns="http://www.w3.org/2000/svg" xmlns:xlink="http://www.w3.org/1999/xlink" viewBox="0 0 101.79 35.97"><defs><style>.cls-1{fill:url(#linear-gradient);}.cls-2{fill:#d8d9dd;}.cls-3{fill:url(#linear-gradient-2);}.cls-4{fill:#19421b;}.cls-5{fill:url(#linear-gradient-3);}.cls-6,.cls-8,.cls-9{fill:none;}.cls-6,.cls-8{stroke:#221f1f;stroke-dasharray:5;}.cls-6,.cls-9{stroke-miterlimit:10;}.cls-7{fill:#349934;}.cls-8{stroke-linecap:round;stroke-linejoin:round;}.cls-9{stroke:#fff;}.cls-10{fill:#fff;}.cls-11{fill:url(#linear-gradient-4);}.cls-12{fill:#808083;}.cls-13{fill:#5b5b5f;opacity:0.4;isolation:isolate;}</style><linearGradient id="linear-gradient" x1="58.8" y1="34.37" x2="66.39" y2="34.37" gradientUnits="userSpaceOnUse"><stop offset="0" stop-color="#00e91c"/><stop offset="1" stop-color="#00753f"/></linearGradient><linearGradient id="linear-gradient-2" x1="25.08" y1="23.08" x2="2.76" y2="23.08" xlink:href="#linear-gradient"/><linearGradient id="linear-gradient-3" x1="82.24" y1="23.08" x2="104.55" y2="23.08" xlink:href="#linear-gradient"/><linearGradient id="linear-gradient-4" x1="64.63" y1="28.57" x2="73.69" y2="28.57" xlink:href="#linear-gradient"/></defs><title>ribbon</title><path class="cls-1" d="M63.37,38.82a3.8,3.8,0,0,0,2.4-1.63,3.75,3.75,0,0,0,.54-2.86,3.86,3.86,0,0,0-2.89-2.94l-.33-1.54L60,30.48,60.37,32l-.31.24a4,4,0,0,0-.65.76,3.78,3.78,0,0,0-.53,2.86A3.82,3.82,0,0,0,63.37,38.82Zm-2.5-3.37a1.76,1.76,0,0,1,.24-1.33,1.73,1.73,0,0,1,1.11-.75,1.78,1.78,0,0,1,2.1,1.38,1.71,1.71,0,0,1-.25,1.32,1.68,1.68,0,0,1-.3.35,1.76,1.76,0,0,1-2.9-1Z" transform="translate(-2.76 -2.93)"/><path class="cls-2" d="M55.78,22.27l9.82,3.25-1,3L57.08,26c-.66-.22-8.27-2.63-7.27-5.7Z" transform="translate(-2.76 -2.93)"/><path class="cls-3" d="M25.08,29.84A109.21,109.21,0,0,0,11,34.69a1,1,0,0,1-1.43-.95c.19-3,.49-6.08.88-9.13q-3.52-3-7.31-5.78c-.62-.45-.39-1.4.44-1.75a129.39,129.39,0,0,1,16.55-5.69Z" transform="translate(-2.76 -2.93)"/><path class="cls-4" d="M18.86,27.48q3.2,1.08,6.22,2.36-2.47-9.22-5-18.45-2.94.79-5.85,1.73Z" transform="translate(-2.76 -2.93)"/><path class="cls-5" d="M82.24,29.84a110.26,110.26,0,0,1,14.1,4.85,1,1,0,0,0,1.43-.95c-.19-3-.49-6.08-.88-9.13q3.52-3,7.31-5.78c.62-.45.39-1.4-.44-1.75A129.53,129.53,0,0,0,87.2,11.39Q84.73,20.62,82.24,29.84Z" transform="translate(-2.76 -2.93)"/><path class="cls-4" d="M88.46,27.48q-3.19,1.08-6.22,2.36,2.48-9.22,5-18.45,3,.79,5.86,1.73Q90.77,20.31,88.46,27.48Z" transform="translate(-2.76 -2.93)"/><path class="cls-6" d="M24.88,17.07" transform="translate(-2.76 -2.93)"/><path class="cls-6" d="M11.52,17.07" transform="translate(-2.76 -2.93)"/><path class="cls-6" d="M96.51,17.07" transform="translate(-2.76 -2.93)"/><path class="cls-6" d="M83.15,17.07" transform="translate(-2.76 -2.93)"/><path class="cls-7" d="M88.46,27.48a113.93,113.93,0,0,0-69.6,0L13,9.29a133,133,0,0,1,81.26,0Q91.38,18.38,88.46,27.48Z" transform="translate(-2.76 -2.93)"/><path class="cls-6" d="M23.88,34.21" transform="translate(-2.76 -2.93)"/><path class="cls-6" d="M10.52,34.21" transform="translate(-2.76 -2.93)"/><path class="cls-8" d="M96.77,34.21" transform="translate(-2.76 -2.93)"/><path class="cls-8" d="M83.83,34.21" transform="translate(-2.76 -2.93)"/><path class="cls-9" d="M49.91,19.26" transform="translate(-2.76 -2.93)"/><path class="cls-9" d="M49.34,19.06" transform="translate(-2.76 -2.93)"/><path class="cls-10" d="M56.11,16.07c-.06,0-.09.13-.17.08s-.12-.49-.35-.63l-.09.07a5.22,5.22,0,0,0-.33-.54,3.41,3.41,0,0,0-1-.52s0,.09-.05.09-.32-.15-.52-.22h-.09a.16.16,0,0,0,0,.09l-.24-.09a2.61,2.61,0,0,0-1.35.41,1.83,1.83,0,0,0-.51.49A2.52,2.52,0,0,0,51,16c0,.24,0,.47-.08.65s-.26.49-.34.73c.2.06.31.25.44.39a.67.67,0,0,0,.47.29c0,.13-.11.31,0,.36a1.26,1.26,0,0,1,.46.35.85.85,0,0,1,.15.68c-.07.22-.39.4-.39.5a.11.11,0,0,0,.07.06A.31.31,0,0,0,52,20c.09,0,.19,0,.2.05a3.75,3.75,0,0,0,.68-1.14l0-.12,0-.11.05-.2a1.2,1.2,0,0,0,0-.17h0s-.05-.05,0-.06a.21.21,0,0,1,0-.15A.1.1,0,0,1,53,18c.09,0,.18.08.16.13h0s0,0,0,0l0,0,0,.07a1.88,1.88,0,0,0,.28.3l.46.26a1.36,1.36,0,0,1,.13-.24c0,.13.09.28.18.3.29.22.41,0,.63-.25s.31-.1.39-.25l.06.19c.11,0-.15-.2.05-.23,0,.09.09.14.11.21.14-.09,0-.27.11-.32s-.12.28.07.21,0-.08,0-.11c.15.18.36.16.48-.08,0,.06,0,.16,0,.19h0a.41.41,0,0,0,0-.11.3.3,0,0,0,0,.08l.06-.05a.12.12,0,0,0,0-.08l0,.05a.86.86,0,0,0,.14-.13c.09-.11.24-.24.23-.28a4.45,4.45,0,0,0-.13-.67,2.62,2.62,0,0,0-.15-.48s0-.1-.06-.16l-.08-.17C56.24,16.29,56.18,16.18,56.11,16.07Z" transform="translate(-2.76 -2.93)"/><path class="cls-10" d="M48,13.6c0,.06.1.11.1.15s-.18-.09-.18,0l.07.1-.21-.06a.83.83,0,0,0-.14.22s.05.06.05.08-.07,0-.11.06v0a.56.56,0,0,0,0,.08h-.06c0,.34-.06.7-.09,1.08a1.5,1.5,0,0,1,0,.31c0,.09-.16.09-.23.13.28.32.27.59.57.9-.05,0-.11.06,0,.16a2.42,2.42,0,0,1,.5.88c0,.07-.16,0-.13.07s.21.15.26.26c.37-.14.55-.48.84-.71,0-.23.61-.82.83-.89h0a.36.36,0,0,0,.19-.36c0-.11-.06-.23-.09-.36l-.17-.13s.09,0,.06-.12-.2-.34-.4-.55-.18-.26-.29-.34l.07,0c-.07-.1,0,.11-.14-.06,0,0,0-.06.07-.08s-.13,0-.22-.11.2.12.09,0,0,0-.07,0,0-.3-.22-.42c0,0,.11,0,.13,0h-.09l.06,0-.06-.06a.11.11,0,0,0-.07,0h0l-.14-.13a1.75,1.75,0,0,0-.28-.2A1.66,1.66,0,0,0,48,13.6Z" transform="translate(-2.76 -2.93)"/><path class="cls-10" d="M51.29,10.29a1.2,1.2,0,0,1,.06.17c0,.08-.14-.14-.15-.06l0,.11a1.83,1.83,0,0,1-.16-.13,1,1,0,0,0-.15.14.26.26,0,0,1,0,.1s-.06,0-.1,0v0a.24.24,0,0,0,0,.09h0c-.11.28-.22.6-.36.92a1.33,1.33,0,0,1-.07.3c0,.06-.16,0-.22,0,.1.42,0,.65.11,1.07,0,0-.12,0-.09.12a2.27,2.27,0,0,1,0,1c0,.06-.15-.07-.15,0s.12.23.11.35a3.1,3.1,0,0,0,1.14-.29,1.17,1.17,0,0,1,.52-.35,2.21,2.21,0,0,1,.64-.21h0a.37.37,0,0,0,.31-.29c0-.11,0-.24,0-.37l-.14-.17c.05,0,.1,0,.09-.1s-.11-.38-.25-.63a3.86,3.86,0,0,0-.2-.41h.08c0-.12-.06.09-.12-.1.05,0,.05-.05.08-.06s-.12,0-.17-.16.15.17.08,0,0,0,0,0,0-.28-.13-.46c0,0,.1.06.11,0h0s0,0-.07,0h0l0-.08,0,0h0L52,10.55a2.92,2.92,0,0,0-.21-.27A1.23,1.23,0,0,0,51.29,10.29Z" transform="translate(-2.76 -2.93)"/><path class="cls-10" d="M53.65,19.43a.73.73,0,0,1-.17-.07c0-.06.19,0,.14-.07l-.11,0a1.2,1.2,0,0,1,.2,0,.69.69,0,0,0,0-.2L53.61,19s0,0,.07-.08v0l-.08-.05,0,0a4.41,4.41,0,0,1-.33-.91.84.84,0,0,1-.11-.28c0-.09.14-.09.2-.12a1.44,1.44,0,0,1-.26-.46,1.35,1.35,0,0,0-.24-.48c.06,0,.16-.08.11-.18a1.12,1.12,0,0,1-.13-1c.09-.1.31,0,.33-.09a.2.2,0,0,0-.1-.16C53,15,53,15,53,14.91a2.4,2.4,0,0,0-1.19.6,5.76,5.76,0,0,0-.75.86,6.7,6.7,0,0,1-.36.94c-.16.38-.32.77-.41.92v0a.66.66,0,0,0,0,.61,3.7,3.7,0,0,0,.28.28l.23,0c0,.07,0,.13,0,.17s.37.14.67.15c.13,0,.31.07.44.05l0,.09c.12,0,0-.13.15-.06,0,0,0,.08,0,.11.16,0,.08-.11.24-.07s-.23.05,0,.1c0,0,0,0,.06,0a.38.38,0,0,0,.45.15s-.1.06-.08.09h0s.06,0,.06-.05l0,.06h.09l.05,0v0H53a1.64,1.64,0,0,0,.33,0A1.44,1.44,0,0,0,53.65,19.43Z" transform="translate(-2.76 -2.93)"/><path class="cls-10" d="M59.15,12.63s-.12.09-.12.13.22,0,.22.09l-.08.08.25,0a1.26,1.26,0,0,1,.16.33s-.07.05-.07.07.08.08.13.13v0a.2.2,0,0,1-.07.06l.08.05a7,7,0,0,1-.11,1.28,1.91,1.91,0,0,0-.14.31c0,.11.14.19.19.27-.38.18-.48.47-.89.6,0,0,.08.12,0,.17a2.79,2.79,0,0,0-.84.56c0,.06.14.08.08.12s-.26,0-.36.1c-.24-.27-.24-.63-.43-.93a.78.78,0,0,0-.15-.56,1.32,1.32,0,0,0-.4-.47v0a.35.35,0,0,1-.13-.37l.12-.35.19-.11c-.05,0-.09-.06-.06-.13s.22-.33.45-.52.2-.25.33-.31l-.09,0c.08-.1.06.13.16,0-.06,0,0-.07-.08-.1.12-.11.15.05.25-.07s-.23.08-.11-.07a.05.05,0,0,1,.08,0c-.06-.13,0-.33.25-.41,0,0-.15,0-.16,0h0l.1,0-.07,0,.06-.06h.08l0,0,.16-.11c.13-.06.31-.16.34-.14A2.65,2.65,0,0,1,59.15,12.63Z" transform="translate(-2.76 -2.93)"/><path class="cls-10" d="M55.44,10.25a.7.7,0,0,0-.06.17c0,.08.11-.15.11-.07l0,.11.12-.14.13.13s0,.08,0,.09.05,0,.09,0v0a.24.24,0,0,1,0,.09h0c.12.27.27.59.43.91a2.7,2.7,0,0,0,.08.31c.06.06.17,0,.25,0-.13.41,0,.66-.2,1.06,0,0,.11,0,.07.12a5.48,5.48,0,0,0-.23,1c0,.06.1-.07.08,0s-.13.22-.16.33a.4.4,0,0,1-.29-.06,1.76,1.76,0,0,0-.39-.17.92.92,0,0,0-.49-.32,3.33,3.33,0,0,0-.72-.21h0a.54.54,0,0,1-.23-.11.46.46,0,0,1-.17-.24c0-.12,0-.26,0-.39l.17-.15c-.06,0-.12,0-.1-.12s.16-.36.33-.59.15-.29.25-.38l-.07,0c.06-.11,0,.09.12-.09,0,0,0,0,0-.06s.1,0,.17-.15-.16.16-.06,0a0,0,0,0,1,0,0c0-.09.05-.26.21-.43,0,0-.09.06-.09,0h0l0,0h0l0-.06,0,0h0l.12-.15.19-.25A.4.4,0,0,1,55.44,10.25Z" transform="translate(-2.76 -2.93)"/><path class="cls-2" d="M57.91,20.37,60,30.49l3.05-.63-1.64-7.79c-.14-.68-1.69-8.51-4.84-7.86Z" transform="translate(-2.76 -2.93)"/><path class="cls-11" d="M64.63,28.48l1.49.5a3.84,3.84,0,0,0,2.59,3.2,3.75,3.75,0,0,0,2.9-.22,3.68,3.68,0,0,0,1.89-2.2A3.81,3.81,0,0,0,71.07,25a3.75,3.75,0,0,0-2.9.21,3.84,3.84,0,0,0-.82.56l-.27.27-1.49-.49ZM69.09,27a1.74,1.74,0,0,1,1.34-.09,1.77,1.77,0,0,1,.65,3,2,2,0,0,1-.38.26A1.77,1.77,0,0,1,68.22,28,1.72,1.72,0,0,1,69.09,27Z" transform="translate(-2.76 -2.93)"/><ellipse class="cls-12" cx="60.61" cy="25.63" rx="0.96" ry="0.96" transform="translate(-4.43 43.98) rotate(-41.78)"/><polygon class="cls-13" points="57.69 23.27 57.94 23.28 57.97 22.84 58.41 22.86 58.42 22.61 57.98 22.58 58 22.14 57.75 22.13 57.73 22.57 57.28 22.54 57.27 22.8 57.71 22.82 57.69 23.27"/><path class="cls-10" d="M43.64,11.06l2.5-1.78,2.51-1.76c.84-.59,1.69-1.16,2.53-1.74S52.84,4.59,53.7,4a.54.54,0,0,1,.52,0h0c.45.2.9.42,1.35.65s.89.47,1.32.72l.65.38c.22.12.44.25.65.39.43.27.85.55,1.26.85a.05.05,0,0,1,0,.08,0,0,0,0,1-.06,0A15.09,15.09,0,0,1,58,6.67q-.36-.11-.72-.24c-.24-.07-.47-.16-.71-.25-.47-.17-.94-.35-1.4-.55s-.93-.39-1.38-.61l.55,0c-.87.53-1.77,1-2.65,1.54L49,8.09,46.36,9.63c-.89.51-1.77,1-2.67,1.52a.06.06,0,0,1-.07,0S43.61,11.07,43.64,11.06Z" transform="translate(-2.76 -2.93)"/><path class="cls-10" d="M44.56,10.5a.21.21,0,0,0-.08.19v.25l.08,1.35c.07.91.12,1.82.19,2.72s.14,1.81.22,2.72L45.09,19a.13.13,0,0,0,.25,0l.07-1.22c0-.91.08-1.82.11-2.72s.06-1.82.09-2.72l0-1.36V9.7Z" transform="translate(-2.76 -2.93)"/></svg>